HIERARCHY
ROOT RootJoint
{
    OFFSET   0.000000   0.000000   0.000000
    CHANNELS 6 Xposition Yposition Zposition Xrotation Yrotation Zrotation
    JOINT pelvis_lowerback
    {
        OFFSET   0.000000   0.093605   0.000000
        CHANNELS 3 Xrotation Yrotation Zrotation
        JOINT lowerback_torso
        {
            OFFSET   0.000000   0.100000   0.000000
            CHANNELS 3 Xrotation Yrotation Zrotation
            JOINT torso_head
            {
                OFFSET   0.000000   0.282350   0.000000
                CHANNELS 3 Xrotation Yrotation Zrotation
                End Site
                {
                    OFFSET   0.000000   0.192650   0.000000
                }
            }
            JOINT rTorso_Clavicle
            {
                OFFSET  -0.001000   0.157500   0.000000
                CHANNELS 3 Xrotation Yrotation Zrotation
                JOINT rShoulder
                {
                    OFFSET  -0.117647   0.000000   0.000000
                    CHANNELS 3 Xrotation Yrotation Zrotation
                    JOINT rElbow
                    {
                        OFFSET  -0.245000   0.000000   0.000000
                        CHANNELS 3 Xrotation Yrotation Zrotation
                        JOINT rWrist
                        {
                            OFFSET  -0.240000   0.000000   0.000000
                            CHANNELS 3 Xrotation Yrotation Zrotation
                            End Site
                            {
                                OFFSET  -0.116353  -0.002500   0.000000
                            }
                        }
                    }
                }
            }
            JOINT lTorso_Clavicle
            {
                OFFSET   0.001000   0.157500   0.000000
                CHANNELS 3 Xrotation Yrotation Zrotation
                JOINT lShoulder
                {
                    OFFSET   0.117647   0.000000   0.000000
                    CHANNELS 3 Xrotation Yrotation Zrotation
                    JOINT lElbow
                    {
                        OFFSET   0.245000   0.000000   0.000000
                        CHANNELS 3 Xrotation Yrotation Zrotation
                        JOINT lWrist
                        {
                            OFFSET   0.240000   0.000000   0.000000
                            CHANNELS 3 Xrotation Yrotation Zrotation
                            End Site
                            {
                                OFFSET   0.116353  -0.002500   0.000000
                            }
                        }
                    }
                }
            }
        }
    }
    JOINT rHip
    {
        OFFSET  -0.100000  -0.051395   0.000000
        CHANNELS 3 Xrotation Yrotation Zrotation
        JOINT rKnee
        {
            OFFSET   0.000000  -0.410000   0.000000
            CHANNELS 3 Xrotation Yrotation Zrotation
            JOINT rAnkle
            {
                OFFSET   0.000000  -0.390000   0.000000
                CHANNELS 3 Xrotation Yrotation Zrotation
                JOINT rToeJoint
                {
                    OFFSET   0.000000  -0.050000   0.130000
                    CHANNELS 3 Xrotation Yrotation Zrotation
                    End Site
                    {
                        OFFSET  -0.010000   0.002000   0.060000
                    }
                }
            }
        }
    }
    JOINT lHip
    {
        OFFSET   0.100000  -0.051395   0.000000
        CHANNELS 3 Xrotation Yrotation Zrotation
        JOINT lKnee
        {
            OFFSET   0.000000  -0.410000   0.000000
            CHANNELS 3 Xrotation Yrotation Zrotation
            JOINT lAnkle
            {
                OFFSET   0.000000  -0.390000   0.000000
                CHANNELS 3 Xrotation Yrotation Zrotation
                JOINT lToeJoint
                {
                    OFFSET   0.000000  -0.050000   0.130000
                    CHANNELS 3 Xrotation Yrotation Zrotation
                    End Site
                    {
                        OFFSET   0.010000   0.002000   0.060000
                    }
                }
            }
        }
    }
}
MOTION
Frames: 10
Frame Time:   0.008333
 -2.519962   0.912177   4.945678 -175.714774  13.033178 -179.029460   5.862460   0.573864  -0.694197  -0.196564   1.852519   3.777104  -1.602095  -0.758108   3.158884  -0.198591   1.029715   5.167203  -7.700980   7.766589  50.598762   0.020758  77.656617  -0.020982  -2.076629   3.595778  -8.436233   1.631755   4.098406  -3.461893  -1.403627   1.472092 -43.849153  -0.000203 -63.374212   0.000254  -2.951665  -3.202042  12.743902  -6.906146   6.421312  -8.974064  40.548635  -0.041307  -0.024132 -14.494382   0.099500   1.063335  -2.269210  -0.002087  -0.017308  -2.186265  -6.605703   0.543946  13.975868   0.000430   0.000101  -8.582214  -2.147638   2.807470   0.580879   0.000020   0.000013
 -2.521532   0.911645   4.946917 -175.506691  12.977854 -178.843209   6.116654   0.463501  -0.819760  -0.188051   1.878135   3.667585  -1.581011  -0.813077   3.123756  -0.121951   0.976074   5.149544  -7.682568   7.500459  50.532525   0.018741  77.278594  -0.018732  -2.151007   3.530266  -8.581007   1.648428   3.982753  -3.540756  -1.393696   1.284490 -44.196914   0.001641 -63.583705   0.001342  -3.097065  -3.064998  12.864177  -7.214670   5.654931  -8.812954  42.508394  -0.047384  -0.024455 -14.847177  -0.663421   1.044686  -2.043934  -0.002864  -0.016555  -2.246068  -6.664575   0.193213  14.204354   0.000509   0.000023  -8.563647  -2.132068   2.834322   0.565713   0.000009   0.000010
 -2.522901   0.911116   4.948221 -175.301745  12.953773 -178.671754   6.359429   0.364442  -0.951717  -0.170388   1.907463   3.552126  -1.558101  -0.865096   3.090974  -0.056772   0.937623   5.130465  -7.670795   7.258418  50.469884   0.016896  76.923934  -0.016630  -2.224509   3.449916  -8.698184   1.668656   3.866342  -3.632255  -1.380141   1.095755 -44.542666   0.003286 -63.794203   0.002320  -3.219926  -3.006453  12.917292  -7.489452   4.895194  -8.605057  44.411956  -0.052677  -0.023683 -15.173934  -1.376936   1.023267  -1.838403  -0.003460  -0.015582  -2.301769  -6.706883  -0.127269  14.431784   0.000539  -0.000063  -8.551838  -2.102395   2.858995   0.553699   0.000002   0.000008
 -2.524112   0.910585   4.949583 -175.114910  12.957291 -178.498323   6.582296   0.272589  -1.093591  -0.154392   1.936196   3.425306  -1.536010  -0.913517   3.059137   0.000144   0.906945   5.111558  -7.663426   7.036376  50.412260   0.015344  76.594489  -0.014834  -2.294378   3.376842  -8.799932   1.689979   3.752948  -3.732145  -1.365581   0.914878 -44.876470   0.004555 -63.992234   0.003071  -3.333734  -2.969312  12.932642  -7.726380   4.168021  -8.374039  46.207357  -0.056358  -0.021779 -15.478490  -2.042270   0.999058  -1.650481  -0.003872  -0.014442  -2.365138  -6.732294  -0.433919  14.644873   0.000530  -0.000144  -8.537433  -2.061614   2.883464   0.544425  -0.000001   0.000007
 -2.525194   0.910049   4.951004 -174.948264  12.985547 -178.318868   6.786843   0.185933  -1.243939  -0.142210   1.962880   3.288468  -1.515809  -0.958701   3.027774   0.049596   0.881326   5.091785  -7.659939   6.831571  50.358173   0.014060  76.288686  -0.013336  -2.360193   3.315133  -8.894479   1.711653   3.643899  -3.836061  -1.350803   0.743457 -45.195528   0.005476 -64.176898   0.003618  -3.442795  -2.935447  12.927045  -7.928745   3.476673  -8.131296  47.889373  -0.058448  -0.019198 -15.762745  -2.662679   0.972592  -1.478492  -0.004122  -0.013220  -2.439621  -6.741764  -0.732182  14.842895   0.000498  -0.000216  -8.518244  -2.011355   2.907506   0.537388  -0.000003   0.000005
 -2.526167   0.909507   4.952486 -174.800546  13.036117 -178.133447   6.975604   0.103412  -1.399772  -0.133216   1.986937   3.144503  -1.497445  -1.000910   2.996919   0.092279   0.859263   5.070449  -7.659872   6.641978  50.306493   0.012989  76.004721  -0.012091  -2.422114   3.264128  -8.986207   1.733148   3.539593  -3.941074  -1.336324   0.581638 -45.498755   0.006100 -64.348797   0.003999  -3.548122  -2.900765  12.908365  -8.100078   2.820963  -7.883093  49.462226  -0.059156  -0.016327 -16.028129  -3.241252   0.944443  -1.320929  -0.004238  -0.011982  -2.525213  -6.736488  -1.023461  15.026848   0.000452  -0.000278  -8.493761  -1.952785   2.931016   0.532281  -0.000003   0.000004
 -2.527042   0.908962   4.954029 -174.669800  13.106660 -177.943341   7.150809   0.024308  -1.557989  -0.126361   2.008096   2.996471  -1.480635  -1.040356   2.966750   0.129025   0.839749   5.047407  -7.662649   6.466001  50.256635   0.012075  75.740892  -0.011048  -2.480433   3.222301  -9.077181   1.754086   3.440111  -4.045151  -1.322486   0.429161 -45.785801   0.006479 -64.508796   0.004247  -3.649896  -2.864809  12.880884  -8.243720   2.199957  -7.633613  50.932074  -0.058731  -0.013436 -16.275913  -3.780853   0.915126  -1.176506  -0.004247  -0.010773  -2.620841  -6.717796  -1.307694  15.197816   0.000399  -0.000328  -8.463914  -1.886930   2.954028   0.528913  -0.000003   0.000003
 -2.527721   0.908508   4.955683 -174.557838  13.197883 -177.846420   7.324067  -0.034825  -1.646567  -0.139708   2.026376   2.873220  -1.477290  -1.072719   2.950862   0.172535   0.843272   4.946888  -7.727147   6.369437  50.206120   0.010998  75.500937  -0.009713  -2.582044   3.080378  -9.093320   1.792549   3.327188  -4.096771  -1.177551   0.243094 -46.132474   0.009179 -64.819522   0.006396  -3.764704  -2.749904  12.908694  -8.317149   1.321398  -7.318741  52.081968  -0.057672  -0.012637 -16.357688  -4.374517   0.961646  -0.981626  -0.004885  -0.010657  -2.751844  -6.707258  -1.470932  15.425193   0.000305  -0.000441  -8.448700  -1.797630   2.872385   0.507711  -0.000019   0.000003
 -2.528243   0.908082   4.957441 -174.473295  13.352984 -177.761703   7.478687  -0.066339  -1.743272  -0.164720   2.064013   2.748498  -1.474618  -1.102604   2.939165   0.188153   0.868648   4.830509  -7.809730   6.296286  50.151804   0.010097  75.286951  -0.008576  -2.674997   2.971133  -9.087690   1.835582   3.219817  -4.144100  -1.036204   0.061974 -46.464796   0.011295 -65.119792   0.008099  -3.863607  -2.683753  12.878312  -8.365340   0.454153  -6.985809  53.121793  -0.056114  -0.011937 -16.433197  -4.929108   1.005187  -0.791925  -0.005398  -0.010475  -2.892660  -6.662808  -1.602971  15.634392   0.000201  -0.000567  -8.431821  -1.679196   2.797367   0.490946  -0.000025   0.000003
 -2.528634   0.907665   4.959293 -174.411530  13.542607 -177.675818   7.616726  -0.087516  -1.851818  -0.198527   2.109551   2.615815  -1.472397  -1.130569   2.927900   0.185768   0.905372   4.709794  -7.902086   6.237678  50.096409   0.009343  75.093851  -0.007635  -2.758230   2.901964  -9.083917   1.876535   3.117809  -4.189541  -0.904402  -0.109685 -46.776551   0.012741 -65.401174   0.009276  -3.955599  -2.631921  12.830150  -8.385451  -0.374807  -6.650945  54.088167  -0.054104  -0.011102 -16.503274  -5.446444   1.045296  -0.617913  -0.005674  -0.010077  -3.043919  -6.599044  -1.720105  15.823883   0.000102  -0.000668  -8.408906  -1.545759   2.730695   0.478540  -0.000026   0.000002
